<svg width="82" height="34" viewBox="0 0 82 34" fill="none" xmlns="http://www.w3.org/2000/svg">
<path d="M16.148 33.34C14.0653 33.34 12.0267 32.9587 10.032 32.196C8.06667 31.404 6.292 30.216 4.708 28.632C3.18267 27.0773 2.00933 25.332 1.188 23.396C0.396 21.4307 0 19.3627 0 17.192C0 14.992 0.396 12.924 1.188 10.988C2.00933 9.02267 3.18267 7.27733 4.708 5.752C6.292 4.168 8.08133 2.98 10.076 2.188C12.0707 1.396 14.0947 1 16.148 1C18.2307 1 20.2547 1.396 22.22 2.188C24.2147 2.98 26.004 4.168 27.588 5.752L22.352 10.988C21.5013 10.1373 20.5333 9.50667 19.448 9.096C18.3627 8.656 17.2627 8.436 16.148 8.436C15.0333 8.436 13.9333 8.656 12.848 9.096C11.792 9.50667 10.8387 10.1373 9.988 10.988C9.16667 11.8387 8.536 12.792 8.096 13.848C7.656 14.904 7.436 16.0187 7.436 17.192C7.436 18.3653 7.656 19.48 8.096 20.536C8.536 21.5627 9.16667 22.5013 9.988 23.352C10.8387 24.2027 11.792 24.848 12.848 25.288C13.9333 25.6987 15.0333 25.904 16.148 25.904C17.2627 25.904 18.3627 25.6987 19.448 25.288C20.5333 24.848 21.5013 24.2027 22.352 23.352L27.588 28.632C26.004 30.216 24.2293 31.404 22.264 32.196C20.2987 32.9587 18.26 33.34 16.148 33.34Z" fill="#FFE94F"/>
<path d="M51.4339 25.948V33.384H29.7859V25.376C31.9273 24.0853 33.8633 22.78 35.5939 21.46C37.3539 20.14 38.8499 18.8787 40.0819 17.676C41.3139 16.444 42.2673 15.3293 42.9419 14.332C43.6166 13.3347 43.9539 12.528 43.9539 11.912C43.9539 10.9733 43.6313 10.1813 42.9859 9.536C42.3406 8.89067 41.5486 8.568 40.6099 8.568C39.6713 8.568 38.8793 8.89067 38.2339 9.536C37.5886 10.1813 37.2659 10.9733 37.2659 11.912H29.7859C29.7859 10.416 30.0646 9.02267 30.6219 7.732C31.2086 6.412 31.9859 5.268 32.9539 4.3C33.9513 3.30267 35.0953 2.52533 36.3859 1.968C37.7059 1.38133 39.1139 1.088 40.6099 1.088C42.1059 1.088 43.4993 1.38133 44.7899 1.968C46.1099 2.52533 47.2539 3.30267 48.2219 4.3C49.2193 5.268 49.9966 6.412 50.5539 7.732C51.1406 9.02267 51.4339 10.416 51.4339 11.912C51.4339 16.1653 48.2659 20.844 41.9299 25.948H51.4339Z" fill="#FFE94F"/>
<path d="M69.773 33.34C67.6903 33.34 65.6517 32.9587 63.657 32.196C61.6917 31.404 59.917 30.216 58.333 28.632C56.8077 27.0773 55.6343 25.332 54.813 23.396C54.021 21.4307 53.625 19.3627 53.625 17.192C53.625 14.992 54.021 12.924 54.813 10.988C55.6343 9.02267 56.8077 7.27733 58.333 5.752C59.917 4.168 61.7063 2.98 63.701 2.188C65.6957 1.396 67.7197 1 69.773 1C71.8557 1 73.8797 1.396 75.845 2.188C77.8397 2.98 79.629 4.168 81.213 5.752L75.977 10.988C75.1263 10.1373 74.1583 9.50667 73.073 9.096C71.9877 8.656 70.8877 8.436 69.773 8.436C68.6583 8.436 67.5583 8.656 66.473 9.096C65.417 9.50667 64.4637 10.1373 63.613 10.988C62.7917 11.8387 62.161 12.792 61.721 13.848C61.281 14.904 61.061 16.0187 61.061 17.192C61.061 18.3653 61.281 19.48 61.721 20.536C62.161 21.5627 62.7917 22.5013 63.613 23.352C64.4637 24.2027 65.417 24.848 66.473 25.288C67.5583 25.6987 68.6583 25.904 69.773 25.904C70.8877 25.904 71.9877 25.6987 73.073 25.288C74.1583 24.848 75.1263 24.2027 75.977 23.352L81.213 28.632C79.629 30.216 77.8543 31.404 75.889 32.196C73.9237 32.9587 71.885 33.34 69.773 33.34Z" fill="#FFE94F"/>
<path d="M16.148 32.34C14.0653 32.34 12.0267 31.9587 10.032 31.196C8.06667 30.404 6.292 29.216 4.708 27.632C3.18267 26.0773 2.00933 24.332 1.188 22.396C0.396 20.4307 0 18.3627 0 16.192C0 13.992 0.396 11.924 1.188 9.988C2.00933 8.02267 3.18267 6.27733 4.708 4.752C6.292 3.168 8.08133 1.98 10.076 1.188C12.0707 0.396 14.0947 0 16.148 0C18.2307 0 20.2547 0.396 22.22 1.188C24.2147 1.98 26.004 3.168 27.588 4.752L22.352 9.988C21.5013 9.13733 20.5333 8.50667 19.448 8.096C18.3627 7.656 17.2627 7.436 16.148 7.436C15.0333 7.436 13.9333 7.656 12.848 8.096C11.792 8.50667 10.8387 9.13733 9.988 9.988C9.16667 10.8387 8.536 11.792 8.096 12.848C7.656 13.904 7.436 15.0187 7.436 16.192C7.436 17.3653 7.656 18.48 8.096 19.536C8.536 20.5627 9.16667 21.5013 9.988 22.352C10.8387 23.2027 11.792 23.848 12.848 24.288C13.9333 24.6987 15.0333 24.904 16.148 24.904C17.2627 24.904 18.3627 24.6987 19.448 24.288C20.5333 23.848 21.5013 23.2027 22.352 22.352L27.588 27.632C26.004 29.216 24.2293 30.404 22.264 31.196C20.2987 31.9587 18.26 32.34 16.148 32.34Z" fill="#FFE94F"/>
<path d="M51.4339 24.948V32.384H29.7859V24.376C31.9273 23.0853 33.8633 21.78 35.5939 20.46C37.3539 19.14 38.8499 17.8787 40.0819 16.676C41.3139 15.444 42.2673 14.3293 42.9419 13.332C43.6166 12.3347 43.9539 11.528 43.9539 10.912C43.9539 9.97333 43.6313 9.18133 42.9859 8.536C42.3406 7.89067 41.5486 7.568 40.6099 7.568C39.6713 7.568 38.8793 7.89067 38.2339 8.536C37.5886 9.18133 37.2659 9.97333 37.2659 10.912H29.7859C29.7859 9.416 30.0646 8.02267 30.6219 6.732C31.2086 5.412 31.9859 4.268 32.9539 3.3C33.9513 2.30267 35.0953 1.52533 36.3859 0.968001C37.7059 0.381335 39.1139 0.0880015 40.6099 0.0880015C42.1059 0.0880015 43.4993 0.381335 44.7899 0.968001C46.1099 1.52533 47.2539 2.30267 48.2219 3.3C49.2193 4.268 49.9966 5.412 50.5539 6.732C51.1406 8.02267 51.4339 9.416 51.4339 10.912C51.4339 15.1653 48.2659 19.844 41.9299 24.948H51.4339Z" fill="#FFE94F"/>
<path d="M69.773 32.34C67.6903 32.34 65.6517 31.9587 63.657 31.196C61.6917 30.404 59.917 29.216 58.333 27.632C56.8077 26.0773 55.6343 24.332 54.813 22.396C54.021 20.4307 53.625 18.3627 53.625 16.192C53.625 13.992 54.021 11.924 54.813 9.988C55.6343 8.02267 56.8077 6.27733 58.333 4.752C59.917 3.168 61.7063 1.98 63.701 1.188C65.6957 0.396 67.7197 0 69.773 0C71.8557 0 73.8797 0.396 75.845 1.188C77.8397 1.98 79.629 3.168 81.213 4.752L75.977 9.988C75.1263 9.13733 74.1583 8.50667 73.073 8.096C71.9877 7.656 70.8877 7.436 69.773 7.436C68.6583 7.436 67.5583 7.656 66.473 8.096C65.417 8.50667 64.4637 9.13733 63.613 9.988C62.7917 10.8387 62.161 11.792 61.721 12.848C61.281 13.904 61.061 15.0187 61.061 16.192C61.061 17.3653 61.281 18.48 61.721 19.536C62.161 20.5627 62.7917 21.5013 63.613 22.352C64.4637 23.2027 65.417 23.848 66.473 24.288C67.5583 24.6987 68.6583 24.904 69.773 24.904C70.8877 24.904 71.9877 24.6987 73.073 24.288C74.1583 23.848 75.1263 23.2027 75.977 22.352L81.213 27.632C79.629 29.216 77.8543 30.404 75.889 31.196C73.9237 31.9587 71.885 32.34 69.773 32.34Z" fill="#FFE94F"/>
</svg>
